<?xml version="1.0" encoding="iso-8859-1"?>
<!-- Uploaded to: SVG Repo, www.svgrepo.com, Generator: SVG Repo Mixer Tools -->
<!DOCTYPE svg PUBLIC "-//W3C//DTD SVG 1.1//EN" "http://www.w3.org/Graphics/SVG/1.1/DTD/svg11.dtd">
<svg fill="#000000" height="800px" width="800px" version="1.1" id="Capa_1" xmlns="http://www.w3.org/2000/svg" xmlns:xlink="http://www.w3.org/1999/xlink" 
	 viewBox="0 0 488.477 488.477" xml:space="preserve">
<g>
	<path d="M472.227,35.998H16.25C7.29,35.998,0,43.288,0,52.248v383.98c0,8.96,7.29,16.25,16.25,16.25h455.977
		c8.96,0,16.25-7.29,16.25-16.25V52.248C488.477,43.288,481.187,35.998,472.227,35.998z M8.5,387.307h124.842
		c2.347,0,4.25-1.902,4.25-4.25c0-2.348-1.903-4.25-4.25-4.25H8.5v-43.5h62.574c2.347,0,4.25-1.902,4.25-4.25
		c0-2.348-1.903-4.25-4.25-4.25H8.5v-189.5h48.574c2.347,0,4.25-1.902,4.25-4.25c0-2.348-1.903-4.25-4.25-4.25H8.5v-26.002h471.477
		v43.834h-88.882c-2.348,0-4.25,1.902-4.25,4.25c0,2.348,1.902,4.25,4.25,4.25h88.882v201.668H377.405
		c-2.348,0-4.25,1.902-4.25,4.25c0,2.348,1.902,4.25,4.25,4.25h102.571v45.998H8.5V387.307z M16.25,44.498h455.977
		c4.273,0,7.75,3.477,7.75,7.75v15.057H170.094c-2.347,0-4.25,1.902-4.25,4.25c0,2.348,1.903,4.25,4.25,4.25h309.882v18.5H8.5
		V52.248C8.5,47.975,11.977,44.498,16.25,44.498z M472.227,443.979H16.25c-4.273,0-7.75-3.477-7.75-7.75v-16.424h471.477v16.424
		C479.977,440.502,476.5,443.979,472.227,443.979z"/>
	<path d="M38.094,84.805c8.409,0,15.25-6.841,15.25-15.25s-6.841-15.25-15.25-15.25c-8.409,0-15.25,6.841-15.25,15.25
		S29.686,84.805,38.094,84.805z M38.094,62.805c3.722,0,6.75,3.028,6.75,6.75c0,3.722-3.028,6.75-6.75,6.75
		c-3.722,0-6.75-3.028-6.75-6.75C31.344,65.833,34.372,62.805,38.094,62.805z"/>
	<path d="M80.594,84.805c8.409,0,15.25-6.841,15.25-15.25s-6.841-15.25-15.25-15.25c-8.409,0-15.25,6.841-15.25,15.25
		S72.186,84.805,80.594,84.805z M80.594,62.805c3.722,0,6.75,3.028,6.75,6.75c0,3.722-3.028,6.75-6.75,6.75
		c-3.722,0-6.75-3.028-6.75-6.75C73.844,65.833,76.872,62.805,80.594,62.805z"/>
	<path d="M123.094,84.805c8.409,0,15.25-6.841,15.25-15.25s-6.841-15.25-15.25-15.25c-8.409,0-15.25,6.841-15.25,15.25
		S114.686,84.805,123.094,84.805z M123.094,62.805c3.722,0,6.75,3.028,6.75,6.75c0,3.722-3.028,6.75-6.75,6.75
		c-3.722,0-6.75-3.028-6.75-6.75C116.344,65.833,119.372,62.805,123.094,62.805z"/>
	<path d="M313.298,220.597c-1.658-1.66-4.352-1.66-6.01,0l-37.526,37.525l0.001-91.378c0-9.82-7.99-17.811-17.813-17.811h-27.125
		c-9.821,0-17.811,7.99-17.811,17.811v91.384l-37.528-37.527c-0.797-0.798-1.879-1.245-3.005-1.245
		c-1.127,0-2.208,0.447-3.005,1.245l-28.464,28.465c-6.944,6.944-6.944,18.245,0,25.189l90.784,90.783
		c3.364,3.365,7.837,5.218,12.595,5.218c4.757,0,9.23-1.853,12.595-5.218l90.783-90.783c3.365-3.364,5.218-7.837,5.218-12.595
		c0-4.758-1.853-9.231-5.218-12.595L313.298,220.597z M335.757,268.245l-90.784,90.783c-1.759,1.759-4.097,2.728-6.585,2.728
		c-2.487,0-4.825-0.969-6.584-2.728l-56.722-56.722h67.425c2.347,0,4.251-1.902,4.251-4.25c0-2.348-1.904-4.25-4.251-4.25h-75.732
		c-0.06,0-0.115,0.016-0.175,0.018l-25.579-25.579c-3.63-3.631-3.63-9.539,0-13.17l25.459-25.459l41.778,41.777
		c1.216,1.216,3.044,1.58,4.632,0.922c1.588-0.658,2.624-2.208,2.624-3.927V166.744c0-5.134,4.177-9.311,9.312-9.311h27.125
		c5.135,0,9.313,4.177,9.313,9.311l-0.001,101.639c0,1.719,1.035,3.269,2.624,3.927c1.587,0.658,3.416,0.295,4.631-0.922
		l41.776-41.775l25.464,25.463c1.759,1.76,2.728,4.098,2.728,6.585S337.516,266.485,335.757,268.245z"/>
</g>
</svg>